<?xml version="1.0" standalone="no"?>
<!DOCTYPE svg PUBLIC "-//W3C//DTD SVG 20010904//EN"
 "http://www.w3.org/TR/2001/REC-SVG-20010904/DTD/svg10.dtd">
<svg version="1.0" xmlns="http://www.w3.org/2000/svg"
 width="399.000000pt" height="399.000000pt" viewBox="0 0 399.000000 399.000000"
 preserveAspectRatio="xMidYMid meet">
<metadata>
Created by potrace 1.11, written by Peter Selinger 2001-2013
</metadata>
<g transform="translate(0.000000,399.000000) scale(0.100000,-0.100000)"
fill="#000000" stroke="none">
<path d="M1660 3314 c-86 -23 -157 -63 -232 -133 -67 -62 -158 -177 -158 -200
0 -9 207 -11 848 -9 845 3 847 3 913 25 87 30 171 86 245 164 55 58 124 149
124 163 0 3 -379 6 -842 5 -706 0 -852 -3 -898 -15z"/>
<path d="M750 2900 c0 -13 -14 -10 485 -90 242 -38 450 -72 463 -75 21 -5 15
-17 -89 -171 -61 -91 -109 -167 -107 -169 2 -1 81 9 176 23 l173 26 155 227
c85 125 154 230 154 233 0 3 -317 6 -705 6 -454 0 -705 -3 -705 -10z"/>
<path d="M2188 2898 c25 -25 8 -63 -113 -244 -68 -104 -123 -190 -121 -191 3
-4 325 45 343 52 7 2 71 92 143 200 l130 195 -197 0 c-153 0 -194 -3 -185 -12z"/>
<path d="M2601 2886 c14 -30 6 -45 -111 -217 -50 -74 -87 -135 -82 -137 20 -6
263 38 297 54 53 25 110 87 193 207 39 58 72 109 72 112 0 3 -85 5 -190 5
l-190 0 11 -24z"/>
<path d="M933 2445 c-151 -224 -207 -315 -195 -315 10 0 135 18 280 40 144 22
264 40 266 40 6 0 316 459 316 468 0 5 -425 83 -450 82 -3 0 -101 -142 -217
-315z"/>
<path d="M1115 1952 c-113 -39 -175 -118 -183 -233 -8 -117 40 -203 142 -257
45 -23 63 -26 151 -27 91 0 105 3 160 30 104 52 152 141 142 262 -11 147 -131
244 -301 243 -34 -1 -84 -8 -111 -18z m216 -115 c107 -72 106 -217 -1 -274
-90 -48 -222 -19 -262 57 -25 45 -21 134 7 173 49 67 187 91 256 44z"/>
<path d="M363 1953 c-10 -3 -13 -64 -13 -254 l0 -249 60 0 60 0 0 90 0 90 98
0 98 0 22 45 c12 25 22 50 22 56 0 7 -42 9 -120 7 l-120 -3 0 58 0 57 155 0
155 0 24 49 c14 27 22 51 19 55 -7 7 -442 7 -460 -1z"/>
<path d="M1738 1954 c-5 -4 -8 -119 -8 -256 l0 -248 60 0 60 0 0 90 0 90 78 0
77 0 64 -90 65 -90 68 0 c37 0 68 3 67 8 0 4 -29 45 -64 92 l-63 85 35 20
c102 58 98 218 -7 279 -31 18 -56 21 -230 24 -107 2 -198 1 -202 -4z m355
-113 c42 -16 48 -83 9 -95 -9 -3 -69 -6 -132 -8 l-115 -2 -3 57 -3 57 110 0
c60 0 121 -4 134 -9z"/>
<path d="M2490 1904 l0 -53 151 -3 150 -3 -165 -150 -165 -150 -1 -47 0 -48
260 0 260 0 0 50 0 50 -171 2 -171 3 139 127 c77 70 154 140 171 156 26 24 32
38 32 70 0 28 -5 42 -17 46 -9 4 -120 6 -245 5 l-228 -1 0 -54z"/>
<path d="M3388 1948 c-10 -7 -65 -114 -123 -238 -59 -123 -111 -232 -116 -242
-9 -16 -4 -18 59 -18 l69 0 16 40 15 40 140 0 140 0 16 -40 16 -40 65 0 c36 0
65 2 65 5 0 12 -232 490 -241 496 -19 11 -105 9 -121 -3z m102 -218 c22 -44
40 -82 40 -85 0 -3 -36 -5 -80 -5 -44 0 -80 3 -80 7 0 9 72 163 76 163 2 0 22
-36 44 -80z"/>
<path d="M321 1293 c-11 -57 -35 -207 -71 -453 -10 -69 -26 -165 -34 -214 -9
-49 -16 -97 -16 -107 0 -18 47 -19 1725 -19 1371 0 1727 3 1730 12 3 7 14 78
25 158 30 224 68 489 80 555 5 33 10 75 10 93 l0 32 -1719 0 -1718 0 -12 -57z
m922 -42 c102 -44 145 -175 114 -346 -21 -112 -59 -189 -127 -256 -66 -64
-118 -84 -204 -77 -73 6 -118 38 -153 107 -25 49 -28 65 -28 155 1 119 25 202
84 293 47 72 63 86 131 117 67 30 124 32 183 7z m1729 -1 c86 -38 118 -105
118 -249 0 -108 -9 -149 -50 -238 -38 -81 -89 -136 -156 -169 -45 -22 -64 -26
-118 -22 -81 5 -128 34 -164 103 -24 45 -26 61 -27 155 0 85 5 118 24 175 40
116 94 190 166 227 83 43 140 48 207 18z m-2385 -4 c1 -1 -5 -44 -13 -96 -8
-52 -16 -104 -17 -115 -2 -18 4 -20 48 -20 l50 0 20 118 19 117 87 0 86 0 -9
-47 c-5 -27 -20 -118 -33 -203 -13 -85 -33 -213 -44 -285 -12 -71 -21 -131
-21 -132 0 -2 -38 -3 -85 -3 l-86 0 7 53 c3 28 12 88 20 131 7 44 11 83 8 88
-3 4 -25 8 -49 8 -38 0 -45 -3 -49 -22 -12 -59 -36 -196 -38 -223 l-3 -30 -87
-3 -87 -3 5 38 c3 21 12 72 19 113 8 41 19 111 25 155 6 44 18 116 26 160 8
44 17 107 22 140 l7 60 40 5 c33 4 125 2 132 -4z m2018 -54 c-18 -31 -50 -86
-70 -122 -21 -36 -47 -81 -60 -100 -51 -80 -135 -228 -135 -238 0 -8 27 -10
94 -5 63 4 95 2 100 -5 4 -6 1 -41 -5 -77 l-12 -65 -228 0 -228 0 28 47 c15
27 41 71 58 98 16 28 69 116 116 196 48 80 93 152 102 159 29 24 14 30 -83 30
l-98 0 7 53 c4 28 8 60 8 69 1 23 8 23 237 20 l202 -3 -33 -57z m-815 33 c52
-30 83 -96 75 -160 -11 -90 -61 -171 -117 -190 -10 -4 -18 -12 -18 -19 0 -7
20 -72 43 -144 l44 -132 -93 0 c-89 0 -94 1 -99 23 -2 12 -14 69 -25 126 -23
112 -35 147 -43 121 -3 -8 -12 -68 -21 -133 -9 -65 -18 -123 -21 -128 -10 -15
-165 -12 -165 4 0 22 40 299 44 306 2 3 11 60 20 126 9 66 22 144 28 173 l12
54 150 -4 c129 -3 156 -6 186 -23z m340 13 c0 -7 -7 -56 -15 -108 -46 -286
-66 -412 -77 -477 l-12 -73 -83 0 -83 0 0 28 c0 15 5 47 11 72 6 25 19 104 29
175 11 72 29 186 40 255 11 69 20 128 20 133 0 4 38 7 85 7 61 0 85 -3 85 -12z
m1256 -188 c21 -110 42 -200 45 -200 9 0 19 66 19 130 1 30 9 102 19 160 l18
105 83 3 83 3 -6 -33 c-3 -18 -13 -78 -22 -133 -9 -55 -23 -138 -31 -185 -8
-47 -21 -138 -30 -202 l-17 -118 -82 0 c-57 0 -84 4 -88 13 -2 6 -14 66 -26
132 -29 155 -51 246 -61 240 -4 -2 -10 -44 -13 -92 -3 -48 -14 -134 -24 -190
l-17 -103 -78 0 c-71 0 -78 2 -78 19 0 23 38 289 45 311 2 8 11 65 20 125 8
61 20 134 26 163 l10 52 83 0 83 0 39 -200z"/>
<path d="M1090 1087 c-37 -39 -61 -115 -67 -214 -6 -105 7 -143 52 -143 69 0
124 143 113 292 -6 86 -50 115 -98 65z"/>
<path d="M2814 1083 c-57 -62 -91 -287 -49 -333 21 -23 54 -26 76 -7 44 35 78
149 79 255 0 103 -51 144 -106 85z"/>
<path d="M1591 1057 c-17 -96 -15 -117 10 -117 48 0 89 50 89 110 0 36 -31 70
-64 70 -22 0 -25 -6 -35 -63z"/>
</g>
</svg>
